<svg width="63" height="63" viewBox="0 0 63 63" fill="none" xmlns="http://www.w3.org/2000/svg">
<path d="M17.2696 6.27637C16.8533 6.27637 16.4539 6.44177 16.1595 6.73619C15.8651 7.03061 15.6997 7.42993 15.6997 7.8463V34.5477C15.6997 36.2132 16.3613 37.8104 17.539 38.9881C18.7167 40.1658 20.3139 40.8274 21.9794 40.8274H25.1318V50.2407C25.1318 51.9062 25.7935 53.5034 26.9711 54.6811C28.1488 55.8588 29.7461 56.5204 31.4116 56.5204C33.0771 56.5204 34.6743 55.8588 35.852 54.6811C37.0297 53.5034 37.6913 51.9062 37.6913 50.2407V40.8274H40.8186C42.4841 40.8274 44.0813 40.1658 45.259 38.9881C46.4367 37.8104 47.0983 36.2132 47.0983 34.5477V7.84944C47.0983 7.43307 46.9329 7.03375 46.6385 6.73933C46.3441 6.44491 45.9447 6.27951 45.5284 6.27951L17.2696 6.27637ZM18.8396 31.4078H43.9584V34.5477C43.9584 35.3804 43.6276 36.179 43.0388 36.7679C42.45 37.3567 41.6513 37.6875 40.8186 37.6875H36.1214C35.705 37.6875 35.3057 37.8529 35.0112 38.1474C34.7168 38.4418 34.5514 38.8411 34.5514 39.2575V50.2407C34.5514 51.0734 34.2206 51.8721 33.6318 52.4609C33.0429 53.0497 32.2443 53.3806 31.4116 53.3806C30.5788 53.3806 29.7802 53.0497 29.1914 52.4609C28.6025 51.8721 28.2717 51.0734 28.2717 50.2407V39.2575C28.2717 38.8411 28.1063 38.4418 27.8119 38.1474C27.5175 37.8529 27.1181 37.6875 26.7018 37.6875H21.9794C21.1467 37.6875 20.348 37.3567 19.7592 36.7679C19.1704 36.179 18.8396 35.3804 18.8396 34.5477V31.4078ZM43.9584 28.2679H18.8396V9.41937H31.399V14.1292C31.399 14.5455 31.5644 14.9448 31.8588 15.2393C32.1532 15.5337 32.5526 15.6991 32.9689 15.6991C33.3853 15.6991 33.7846 15.5337 34.079 15.2393C34.3735 14.9448 34.5389 14.5455 34.5389 14.1292V9.41937H37.6787V17.2753C37.6787 17.6917 37.8441 18.091 38.1385 18.3854C38.433 18.6798 38.8323 18.8452 39.2487 18.8452C39.665 18.8452 40.0643 18.6798 40.3588 18.3854C40.6532 18.091 40.8186 17.6917 40.8186 17.2753V9.41937H43.9584V28.2679Z" fill="#BA3620"/>
</svg>
