<svg width="162" height="47" viewBox="0 0 162 47" fill="none" xmlns="http://www.w3.org/2000/svg">
<g clip-path="url(#clip0_873_380)">
<path d="M109.787 43.1334C109.414 43.1302 109.043 43.0829 108.681 42.9923C107.847 42.7887 107.071 42.3973 106.411 41.8477C106.057 41.5559 105.751 41.2096 105.505 40.8218L107.675 39.0296C108.012 39.4582 108.427 39.8184 108.899 40.0908C109.245 40.2833 109.633 40.3884 110.028 40.397C110.353 40.4064 110.674 40.3289 110.958 40.1726C111.07 40.1223 111.166 40.0417 111.235 39.9397C111.303 39.8377 111.342 39.7184 111.347 39.5955C111.351 39.4491 111.3 39.3064 111.206 39.1947C111.09 39.066 110.96 38.9513 110.817 38.8532C110.619 38.7156 110.41 38.5934 110.193 38.4877C109.941 38.3627 109.667 38.2136 109.369 38.0405C109.076 37.8755 108.796 37.6862 108.534 37.4746C108.262 37.2575 108.017 37.0083 107.804 36.7324C107.592 36.4567 107.422 36.1509 107.299 35.8251C107.17 35.4786 107.106 35.1112 107.11 34.7414C107.105 34.1958 107.234 33.6573 107.486 33.1736C107.737 32.6944 108.081 32.2699 108.497 31.9248C108.945 31.5573 109.455 31.2738 110.003 31.088C110.599 30.8807 111.226 30.7761 111.857 30.7786C112.645 30.7639 113.424 30.955 114.116 31.3333C114.758 31.6895 115.345 32.1383 115.857 32.6654L113.833 34.5987C113.556 34.3206 113.248 34.0753 112.915 33.8677C112.598 33.6673 112.23 33.5611 111.855 33.5616C111.538 33.5441 111.224 33.6307 110.961 33.8084C110.861 33.8742 110.779 33.9633 110.722 34.0681C110.665 34.1728 110.633 34.2901 110.632 34.4096C110.625 34.5704 110.683 34.727 110.792 34.8456C110.92 34.9794 111.066 35.0944 111.227 35.1871C111.407 35.2977 111.611 35.4067 111.838 35.5173C112.065 35.6279 112.289 35.7449 112.508 35.8716C112.799 36.0339 113.082 36.211 113.355 36.4022C113.636 36.5988 113.89 36.8328 114.108 37.0979C114.332 37.3721 114.514 37.6779 114.649 38.0052C114.796 38.3764 114.868 38.7731 114.86 39.1722C114.868 39.733 114.739 40.2873 114.484 40.7865C114.228 41.2724 113.871 41.6981 113.438 42.0353C112.96 42.407 112.416 42.6839 111.835 42.8513C111.169 43.0448 110.479 43.1399 109.787 43.1334ZM118.21 26.4424H121.975L121.175 30.2609L120.61 32.3352H120.705C121.191 31.8998 121.733 31.5311 122.316 31.2387C122.925 30.931 123.598 30.7733 124.28 30.7786C125.253 30.7786 125.959 31.0341 126.399 31.5449C126.838 32.0558 127.058 32.822 127.058 33.8437C127.058 34.1114 127.047 34.3903 127.023 34.6805C126.997 34.9718 126.943 35.2601 126.863 35.5413L125.404 42.8497H121.645L123.01 36.0126C123.056 35.7935 123.099 35.6012 123.14 35.4355C123.177 35.2849 123.197 35.1306 123.199 34.9754C123.209 34.8405 123.192 34.7049 123.147 34.5771C123.102 34.4494 123.032 34.3323 122.94 34.2332C122.738 34.0581 122.476 33.9694 122.21 33.9864C121.865 33.993 121.53 34.1048 121.25 34.307C120.847 34.5998 120.476 34.9358 120.145 35.3089L118.686 42.8529H114.916L118.21 26.4424ZM131.949 43.1334C131.289 43.1416 130.634 43.0213 130.019 42.7791C129.458 42.5574 128.953 42.2155 128.538 41.7772C128.119 41.3315 127.793 40.8067 127.578 40.2335C127.343 39.592 127.227 38.9129 127.237 38.2297C127.223 37.1662 127.426 36.1111 127.834 35.1293C128.195 34.2569 128.718 33.4611 129.375 32.7841C129.986 32.1559 130.712 31.6519 131.514 31.2996C132.272 30.9599 133.094 30.7824 133.925 30.7786C134.585 30.7704 135.24 30.8907 135.854 31.1329C136.415 31.355 136.921 31.6969 137.336 32.1348C137.756 32.5842 138.083 33.1135 138.296 33.6914C138.529 34.3295 138.644 35.0046 138.637 35.684C138.652 36.7505 138.449 37.8088 138.041 38.7939C137.681 39.6663 137.158 40.4622 136.501 41.1392C135.889 41.7675 135.162 42.2716 134.36 42.6236C133.6 42.9589 132.779 43.1325 131.949 43.1334ZM132.373 40.1165C132.72 40.1147 133.058 39.9987 133.333 39.7862C133.652 39.5416 133.916 39.2325 134.109 38.8789C134.346 38.4464 134.521 37.9821 134.627 37.5003C134.757 36.9216 134.82 36.33 134.816 35.7369C134.816 35.1406 134.71 34.6677 134.496 34.323C134.392 34.1533 134.245 34.0151 134.068 33.9236C133.892 33.832 133.694 33.7905 133.496 33.8036C133.149 33.8064 132.812 33.9223 132.536 34.1338C132.217 34.3785 131.952 34.6876 131.76 35.0412C131.521 35.4775 131.347 35.9462 131.242 36.4326C131.111 37.0112 131.048 37.6029 131.053 38.196C131.053 38.7945 131.16 39.2658 131.373 39.6099C131.478 39.7773 131.627 39.9128 131.803 40.0021C131.979 40.0913 132.176 40.1308 132.373 40.1165ZM141.832 44.084L141.273 46.9984H137.502L140.702 31.0624H143.761L143.855 32.3352H143.902C144.403 31.8758 144.97 31.4943 145.583 31.2035C146.132 30.9335 146.733 30.7885 147.343 30.7786C148.378 30.7786 149.186 31.1527 149.767 31.9008C150.348 32.6489 150.639 33.7213 150.638 35.1181C150.646 36.1854 150.47 37.2461 150.119 38.2537C149.803 39.1748 149.334 40.0355 148.73 40.7994C148.183 41.4953 147.503 42.0761 146.731 42.5082C146.013 42.9158 145.202 43.1311 144.377 43.1334C143.932 43.1358 143.494 43.022 143.107 42.8032C142.713 42.5815 142.387 42.2554 142.166 41.8606H142.12L141.832 44.084ZM145.643 33.8533C145.289 33.8641 144.943 33.9568 144.631 34.1242C144.27 34.3054 143.95 34.6548 143.671 35.1726L142.872 39.1803C142.969 39.4595 143.155 39.6993 143.401 39.8632C143.608 39.998 143.849 40.0714 144.095 40.0748C144.452 40.0716 144.798 39.9561 145.084 39.7445C145.423 39.4983 145.707 39.1851 145.919 38.8244C146.182 38.3838 146.38 37.9076 146.508 37.4105C146.662 36.8182 146.738 36.208 146.732 35.5958C146.732 34.9835 146.634 34.5394 146.438 34.2637C146.351 34.1324 146.233 34.0252 146.094 33.9521C145.955 33.8789 145.8 33.8422 145.643 33.8453V33.8533Z" fill="#DA1E0C"/>
<path d="M64.5391 24.0346L64.7966 20.6249L65.139 13.9658L65.2846 9.25123C65.2921 8.74466 65.2964 8.23863 65.2974 7.73314C65.2974 7.35161 65.2974 6.72481 65.2846 5.85596C66.4579 5.88161 67.3976 5.89497 68.1037 5.89603C68.7853 5.89603 69.7207 5.87626 70.9099 5.83672C72.0992 5.79718 73.1072 5.77527 73.9338 5.771C75.1209 5.771 76.0009 5.84634 76.5737 5.99703C77.1276 6.14128 77.6519 6.38222 78.1224 6.70878C78.5686 7.01971 78.956 7.40784 79.2663 7.85497C79.5757 8.30717 79.8051 8.80929 79.9447 9.3394C80.0949 9.89271 80.1708 10.4636 80.1703 11.037C80.1819 12.1832 79.8833 13.3111 79.3063 14.3009C78.7451 15.2733 77.8949 16.0461 76.8744 16.5115C75.7691 17.0118 74.5674 17.2619 73.3546 17.2441C72.7976 17.237 72.2421 17.1834 71.6939 17.0838C71.6235 16.6744 71.4902 16.0664 71.2939 15.2595C71.0977 14.4526 70.9371 13.8547 70.8124 13.4657C71.2152 13.5471 71.6253 13.5874 72.0363 13.5859C72.9322 13.5859 73.5978 13.3711 74.0378 12.9447C74.2503 12.7416 74.4185 12.4966 74.5317 12.2251C74.6449 11.9535 74.7006 11.6615 74.6954 11.3673C74.7002 11.0929 74.6501 10.8204 74.5482 10.5657C74.453 10.3317 74.2918 10.1306 74.0842 9.98703C73.8744 9.83771 73.6338 9.73746 73.3802 9.69367C73.0904 9.64613 72.7971 9.6236 72.5035 9.62635C72.1835 9.62635 71.8523 9.63596 71.5067 9.6536L70.3868 9.73375C70.2737 11.4437 70.1862 13.3486 70.1244 15.4486C70.0113 19.2671 69.9543 21.5579 69.9532 22.3209V24.0458L67.3053 24.0202C66.9325 24.009 66.011 24.017 64.5391 24.0346Z" fill="#42555E"/>
<path d="M81.8457 24.0347C82.0686 21.7445 82.2286 19.8267 82.3257 18.2814C82.4227 16.736 82.5246 14.6825 82.6313 12.1208C82.7379 9.55595 82.7913 7.85778 82.7913 7.02633L82.7769 5.85449C84.8685 5.87266 87.398 5.88121 90.3653 5.88014C93.1043 5.88014 95.5186 5.87159 97.6081 5.85449L97.5825 6.29213C97.5729 6.39793 97.5505 6.78426 97.5153 7.44793L97.4353 8.89068C97.4193 9.20007 97.4097 9.51427 97.4097 9.83328C95.7032 9.76274 94.2675 9.72748 93.1027 9.72748C91.8228 9.72748 90.961 9.72748 90.5173 9.72748C90.0736 9.72748 89.376 9.74725 88.4246 9.78679L88.2646 12.8502C89.3109 12.8769 90.5295 12.8903 91.9204 12.8903C92.4175 12.8903 93.7379 12.8593 95.8818 12.7973C95.7943 13.9344 95.7101 15.2879 95.629 16.8579C94.0963 16.8418 92.9182 16.8333 92.0948 16.8322C90.8725 16.8322 89.504 16.8632 87.9894 16.9252L87.8294 20.1618H89.3573C89.8085 20.1618 90.7429 20.1484 92.1604 20.1217L94.9107 20.0544C95.3186 20.0463 96.0002 20.0095 96.9554 19.9486C96.8487 21.2631 96.7602 22.6214 96.6898 24.0235C94.5267 24.0054 92.1561 23.9968 89.5781 23.9979L83.7288 24.0107L81.8457 24.0347Z" fill="#42555E"/>
<path d="M99.8174 24.0347L100.083 21.2373L100.601 11.7553L100.747 7.93358V5.84961C102.123 5.86778 103.339 5.87633 104.395 5.87526C105.15 5.87526 106.211 5.86671 107.577 5.84961L113.252 16.1909L114.033 17.7106C114.134 16.2144 114.237 14.123 114.341 11.4363C114.446 8.74954 114.499 6.88839 114.501 5.85281C115.589 5.87098 116.461 5.87953 117.117 5.87846C117.418 5.87846 118.286 5.86991 119.72 5.85281L119.4 9.82198L118.804 20.8494L118.724 24.0315C117.57 24.0133 116.492 24.0048 115.492 24.0058C114.658 24.0058 113.505 24.0144 112.033 24.0315C111.572 23.1626 111.232 22.5321 111.012 22.1399L108.779 18.3454C108.043 17.1015 107.365 15.9115 106.747 14.7754C106.339 14.0562 105.919 13.2653 105.486 12.4029L105.201 18.7189L105.065 24.0347C103.966 24.017 103.131 24.009 102.555 24.009C102.065 24.009 101.153 24.0176 99.8174 24.0347Z" fill="#42555E"/>
<path d="M122.162 24.0347L122.428 21.2373L122.946 11.7553L123.095 7.93358V5.84961C124.47 5.86778 125.685 5.87633 126.741 5.87526C127.496 5.87526 128.557 5.86671 129.923 5.84961L135.598 16.1909L136.379 17.7106C136.48 16.2144 136.583 14.123 136.686 11.4363C136.79 8.74954 136.843 6.88839 136.846 5.85281C137.935 5.87098 138.807 5.87953 139.462 5.87846C139.763 5.87846 140.631 5.86991 142.065 5.85281L141.745 9.82198L141.147 20.8494L141.067 24.0315C139.913 24.0133 138.835 24.0048 137.835 24.0058C137.003 24.0058 135.848 24.0154 134.378 24.0315C133.917 23.1626 133.576 22.5321 133.355 22.1399L131.126 18.3422C130.392 17.0983 129.715 15.9083 129.096 14.7722C128.69 14.053 128.269 13.2621 127.834 12.3997L127.547 18.7157L127.411 24.0315C126.316 24.0138 125.477 24.0058 124.901 24.0058C124.408 24.009 123.498 24.017 122.162 24.0347Z" fill="#42555E"/>
<path d="M148.333 24.0347C148.423 23.3166 148.53 22.0956 148.653 20.3718C148.777 18.6479 148.839 17.4312 148.84 16.7216L142.761 5.85449C144.098 5.87266 145.201 5.88121 146.068 5.88014C146.9 5.88014 147.896 5.87159 149.056 5.85449C149.411 6.74259 149.891 7.80114 150.496 9.03015C151.102 10.2592 151.597 11.3578 151.979 12.326C152.993 10.521 153.809 9.11671 154.429 8.1132C155.049 7.10969 155.491 6.35732 155.757 5.85609C156.883 5.87426 157.966 5.88281 159.005 5.88174C159.555 5.88174 160.553 5.87319 162 5.85609L156.165 14.4725C155.003 16.1953 154.423 17.0962 154.423 17.1753L154.41 17.3099V17.443L154.397 17.576L154.304 19.6007C154.243 20.9419 154.195 22.4199 154.159 24.0347C152.91 24.0166 151.943 24.008 151.26 24.0091C150.559 24.0091 149.583 24.0177 148.333 24.0347Z" fill="#42555E"/>
<path d="M56.0116 0H51.2294C51.0215 0.000219707 50.8186 0.0646759 50.6486 0.184585C50.4785 0.304495 50.3495 0.474026 50.2791 0.670077L47.7672 7.70268C47.6712 7.97124 47.4947 8.2035 47.2618 8.36765C47.029 8.5318 46.7512 8.61981 46.4665 8.61963H15.492C14.9375 8.61959 14.3908 8.74984 13.8957 8.99993C13.4006 9.25001 12.9709 9.61296 12.6412 10.0596C12.3115 10.5063 12.091 11.0242 11.9973 11.5717C11.9036 12.1193 11.9394 12.6812 12.1017 13.2124L14.8904 22.3402C15.1114 23.0681 15.5607 23.7051 16.1718 24.1568C16.7828 24.6085 17.5229 24.8506 18.2822 24.8474H40.7211C40.822 24.849 40.921 24.8746 41.0102 24.9219C41.0993 24.9692 41.176 25.037 41.2341 25.1197C41.2921 25.2023 41.3298 25.2976 41.3441 25.3976C41.3584 25.4977 41.3489 25.5997 41.3163 25.6954L40.6043 27.6752C40.5595 27.7975 40.4785 27.9032 40.3722 27.9782C40.2658 28.0532 40.1392 28.094 40.0092 28.0952L18.0503 28.0711C17.8926 28.0713 17.7371 28.1085 17.5964 28.1799C17.4558 28.2513 17.3338 28.3548 17.2404 28.4821C17.147 28.6094 17.0847 28.7569 17.0586 28.9127C17.0326 29.0686 17.0434 29.2284 17.0903 29.3792L18.5014 33.8934C18.5659 34.098 18.6937 34.2768 18.8662 34.4039C19.0388 34.531 19.2472 34.5998 19.4614 34.6004H21.0277C21.2381 33.7714 21.7182 33.0362 22.3921 32.5112C23.066 31.9861 23.8954 31.701 24.7491 31.701C25.6028 31.701 26.4322 31.9861 27.1061 32.5112C27.7801 33.0362 28.2602 33.7714 28.4705 34.6004H34.2911C34.4986 33.7677 34.978 33.0285 35.653 32.5003C36.328 31.9721 37.16 31.6851 38.0165 31.6851C38.873 31.6851 39.7049 31.9721 40.3799 32.5003C41.055 33.0285 41.5344 33.7677 41.7419 34.6004H42.5418C43.2711 34.5988 43.9823 34.3726 44.5789 33.9526C45.1756 33.5325 45.629 32.9388 45.8777 32.2519L49.1879 23.084C49.4461 22.3666 49.4674 21.5851 49.2488 20.8546C49.0302 20.1241 48.5832 19.4833 47.9736 19.0267C47.3377 18.5617 46.5688 18.3154 45.7817 18.3245H20.9509C20.8159 18.3234 20.6847 18.2796 20.5761 18.1992C20.4675 18.1189 20.387 18.0062 20.3461 17.8773L19.767 15.9745C19.7394 15.8797 19.734 15.7798 19.7512 15.6826C19.7685 15.5853 19.8079 15.4934 19.8665 15.414C19.925 15.3345 20.001 15.2697 20.0887 15.2246C20.1763 15.1794 20.2732 15.1552 20.3717 15.1537H49.5383C50.2696 15.1518 50.9826 14.9241 51.5801 14.5016C52.1776 14.079 52.6306 13.4822 52.8773 12.7924L56.9571 1.34657C57.0104 1.19462 57.0266 1.03212 57.0046 0.872608C56.9825 0.713091 56.9227 0.561159 56.8302 0.429449C56.7378 0.29774 56.6152 0.190059 56.4728 0.115363C56.3304 0.0406681 56.1723 0.00111706 56.0116 0Z" fill="#42555E"/>
<path d="M27.6532 35.5623C27.6532 36.1387 27.4827 36.7022 27.1631 37.1814C26.8434 37.6607 26.3892 38.0342 25.8577 38.2548C25.3262 38.4754 24.7414 38.5331 24.1771 38.4207C23.6129 38.3082 23.0946 38.0306 22.6879 37.6231C22.2811 37.2155 22.0041 36.6962 21.8918 36.1309C21.7796 35.5655 21.8372 34.9796 22.0573 34.447C22.2775 33.9145 22.6503 33.4593 23.1286 33.1391C23.607 32.8189 24.1693 32.6479 24.7446 32.6479C25.516 32.6479 26.2558 32.955 26.8013 33.5015C27.3468 34.0481 27.6532 34.7894 27.6532 35.5623Z" fill="#42555E"/>
<path d="M38.0092 38.4767C39.6157 38.4767 40.9179 37.1719 40.9179 35.5623C40.9179 33.9527 39.6157 32.6479 38.0092 32.6479C36.4028 32.6479 35.1006 33.9527 35.1006 35.5623C35.1006 37.1719 36.4028 38.4767 38.0092 38.4767Z" fill="#42555E"/>
<path d="M56.0883 5.82871C57.6947 5.82871 58.997 4.52391 58.997 2.91436C58.997 1.3048 57.6947 0 56.0883 0C54.4819 0 53.1797 1.3048 53.1797 2.91436C53.1797 4.52391 54.4819 5.82871 56.0883 5.82871Z" fill="#42555E"/>
<path d="M55.1973 40.285C55.1973 40.285 28.9906 35.0606 0 41.5915C0 41.5915 28.4866 37.7442 57.6484 47.0002C57.6484 47.0002 56.882 42.4139 55.1973 40.285Z" fill="#42555E"/>
</g>
<defs>
<clipPath id="clip0_873_380">
<rect width="162" height="47" fill="white"/>
</clipPath>
</defs>
</svg>
