<svg width="99" height="68" viewBox="0 0 99 68" fill="none" xmlns="http://www.w3.org/2000/svg">
<g clip-path="url(#clip0_873_369)">
<mask id="mask0_873_369" style="mask-type:luminance" maskUnits="userSpaceOnUse" x="0" y="0" width="99" height="68">
<path d="M99 0H0V68H99V0Z" fill="white"/>
</mask>
<g mask="url(#mask0_873_369)">
<path d="M30.5934 35.9726L30.9531 34.0343L11.5133 34.0269L10.1728 40.8517H18.3204L6.80365 56.1567L6.39111 58.1563H26.1927L27.5681 51.3306H18.6642L30.5934 35.9726Z" fill="#0E783E"/>
<path d="M78.0458 49.5528L81.7697 42.3686L82.5587 48.8365L78.0458 49.5528ZM91.8078 58.1558L89.9659 48.9907L86.9608 34.0264H79.2947L67.0613 54.5193L63.1374 46.0223L73.0033 34.0264H63.7215L57.0177 42.9543L58.8057 34.0264H51.1396L46.3262 58.1558H53.9928L55.952 48.3662L60.0768 58.1558H73.5883L83.0493 52.8607L83.6948 58.1558H91.8078Z" fill="#0E783E"/>
<path d="M45.0411 48.7799L46.1413 43.2647H38.4406L39.1283 39.9208H47.757L48.9253 34.0264H32.6994L27.8867 58.1558H44.3191L45.5223 52.158H36.6871L37.3404 48.7799H45.0411Z" fill="#0E783E"/>
<path d="M98.213 31.6144C98.1154 31.285 97.9976 30.9619 97.8625 30.6463C96.7948 28.1609 96.2419 26.9465 94.8633 24.9505C89.2871 16.8768 83.2214 12.9181 73.5451 12.3726C65.9454 11.663 60.5073 4.31748 53.1343 1.50797C46.3286 -1.08492 35.4974 0.329096 36.0642 0.906884C40.9677 5.90148 43.8087 6.91833 45.3964 7.68357C55.9216 12.7577 61.6196 9.59861 69.6886 16.3356C67.765 15.8732 65.8152 15.5264 63.8555 15.2854C59.3114 14.7378 54.7351 14.7648 50.2237 15.0286C45.7096 15.2917 41.2312 15.8097 36.8364 16.6957C36.2871 16.8048 35.7388 16.9176 35.1927 17.0394C34.6455 17.1554 34.1005 17.2825 33.5564 17.4107C33.0114 17.5341 32.4705 17.6749 31.9281 17.8089C31.3846 17.9402 30.8606 18.1028 30.3267 18.2485L28.7326 18.6986L27.1439 19.1732C26.0839 19.4798 25.0333 19.8373 23.9807 20.1709C21.8812 20.8705 19.7907 21.5961 17.733 22.418C15.6731 23.2283 13.6318 24.0867 11.6311 25.0316C9.63245 25.9811 7.67032 27.0006 5.75358 28.0894C3.84055 29.1846 1.97505 30.3524 0.164487 31.5895C0.0139585 31.6918 -0.0441382 31.8919 0.0361436 32.0619C0.124876 32.25 0.34882 32.3299 0.535793 32.2409C0.535793 32.2409 1.39353 31.8082 2.98386 31.1166C6.13018 29.7158 9.32719 28.4771 12.5802 27.4354C14.9068 26.6696 17.265 26.0108 19.6391 25.4203C24.2606 24.2011 29.5534 23.0832 35.3279 22.3354C35.592 22.2956 35.8555 22.2575 36.1202 22.222C36.6446 22.1458 37.1696 22.078 37.6946 22.015C39.7951 21.7565 41.8983 21.5574 44.0025 21.4494C46.1057 21.3392 48.2094 21.2942 50.3054 21.3779C50.4024 21.381 50.4984 21.3879 50.5949 21.3916C65.5222 21.5129 82.1863 24.8218 98.2238 34.6723C98.5456 34.8698 98.95 34.6088 98.9035 34.2338C98.803 33.4378 98.4273 32.3474 98.213 31.6144Z" fill="#FFCC30"/>
</g>
</g>
<defs>
<clipPath id="clip0_873_369">
<rect width="99" height="68" fill="white"/>
</clipPath>
</defs>
</svg>
