<svg width="76" height="76" viewBox="0 0 76 76" fill="none" xmlns="http://www.w3.org/2000/svg">
<path d="M61.0792 63.2566L43.6467 45.8241L46.978 42.4927L64.4105 59.9221L61.0792 63.2566ZM17.4477 63.2566L14.1131 59.9221L35.9603 38.0781L26.6349 28.8155L24.9205 30.5298L21.9439 27.4936V33.1453L20.2296 34.8597L12 26.6301L13.7144 24.9126H19.3661L16.3487 21.9549L23.1465 15.1571C23.8708 14.4328 24.6641 13.8949 25.5265 13.5432C26.3868 13.1936 27.3047 13.0188 28.2802 13.0188C29.2535 13.0188 30.1704 13.1936 31.0307 13.5432C31.8931 13.8949 32.6864 14.4328 33.4107 15.1571L28.2425 20.3253L31.6838 23.7666L29.9694 25.4809L39.2948 34.7435L47.3234 26.7149C46.8315 26.0179 46.4903 25.3051 46.2998 24.5767C46.1093 23.8482 46.0141 23.0486 46.0141 22.1778C46.0141 19.6136 46.9027 17.4429 48.6798 15.6657C50.457 13.8886 52.6277 13 55.1919 13C55.7362 13 56.2595 13.0387 56.7618 13.1162C57.2684 13.1915 57.7676 13.3464 58.2596 13.5809L51.7538 20.0835L57.2862 25.616L63.7888 19.1102C64.0338 19.6021 64.1918 20.1003 64.263 20.6047C64.3341 21.1113 64.3697 21.6357 64.3697 22.1778C64.3697 24.742 63.4801 26.9127 61.7008 28.6899C59.9258 30.4691 57.7561 31.3588 55.1919 31.3588C54.3211 31.3588 53.5215 31.2646 52.7931 31.0762C52.0646 30.892 51.3529 30.5487 50.658 30.0463L17.4477 63.2566Z" fill="#BA3620"/>
</svg>
